<svg version="1.1" xmlns="http://www.w3.org/2000/svg" style="display: block;" viewBox="0 0 2048 2048" width="700" height="700" preserveAspectRatio="none">
<path transform="translate(0,0)" fill="rgb(255,255,255)" d="M 1007.35 2048 L 1006.04 2047.82 C 985.034 2045.12 960.399 2045.13 938.797 2043.25 C 899.436 2039.58 860.296 2033.85 821.539 2026.06 C 583.502 1977.58 370.538 1845.84 220.87 1654.49 C 52.7144 1439.66 -22.4253 1166.44 12.2245 895.829 C 46.5767 626.063 187.021 381.109 402.475 215.178 C 616.537 51.8106 886.112 -21.1283 1153.34 12.0157 C 1423.03 46.174 1667.98 186.395 1833.99 401.649 C 1999.46 616.306 2073.16 887.768 2038.98 1156.63 C 2003.83 1424.88 1863.93 1668.3 1649.84 1833.69 C 1512.19 1940.01 1349.72 2009.49 1177.77 2035.58 C 1152.74 2039.53 1127.54 2042.33 1102.26 2043.97 C 1087.47 2044.86 1054.5 2045.66 1040.88 2048 L 1007.35 2048 z"/>
<path transform="translate(0,0)" fill="rgb(37,103,254)" d="M 788.531 536.436 C 810.409 535.61 834.324 536.05 856.406 536.059 L 968.615 536.09 L 1050.95 536.093 C 1066.97 536.077 1086.18 535.554 1101.96 536.659 C 1116.2 564.007 1128.02 585.405 1149.97 607.987 C 1203.29 662.817 1263.64 682.973 1338.42 685.621 L 1338.84 686.158 C 1348.75 698.84 1358.96 715.777 1367.9 729.57 L 1413.89 800.16 C 1421.52 811.814 1431.13 827.219 1439.69 837.833 C 1451.7 833.537 1474.25 820.052 1486.47 813.238 L 1566.56 768.689 C 1581.19 760.506 1599.02 748.991 1615.31 745.254 C 1719.04 721.467 1771.39 848.012 1694.8 914.178 C 1677.72 928.941 1653.04 940.352 1633.05 951.387 L 1546.99 999.069 L 1485.07 1033.58 C 1455.76 1050 1435.96 1064.26 1400.65 1061.68 C 1348.44 1057.87 1330.23 1022.7 1304.94 983.481 L 1275.09 938.116 C 1265.48 923.207 1254.92 905.438 1243.53 892.241 C 1234.47 905.623 1223.88 924.926 1215.59 939.124 L 1167.71 1021.2 C 1155.76 1041.78 1143.69 1062.29 1131.49 1082.73 C 1124.56 1094.37 1115.43 1108.7 1109.64 1120.45 C 1174.36 1173.71 1243.12 1223.57 1307.57 1276.93 C 1339.2 1303.11 1347.49 1349.35 1332.55 1386.16 C 1322.63 1410.61 1312.77 1435.36 1303 1459.96 C 1271.24 1537.81 1240.02 1615.87 1209.35 1694.16 C 1187.67 1750.03 1141.58 1790.87 1079.08 1767.62 C 1055.98 1759.03 1033.53 1736.99 1024.16 1714.02 C 1006.54 1670.87 1026.15 1633.42 1042.47 1593.75 C 1064.87 1536.22 1088.8 1479.13 1111.57 1421.73 C 1117.13 1407.72 1122.98 1393.86 1127.08 1379.32 C 1115.61 1368.95 1101.65 1358.61 1089.37 1348.91 C 1066.37 1330.64 1043.27 1312.49 1020.07 1294.46 C 1007.04 1284.24 964.921 1248.9 952.415 1243.34 C 947.695 1249.39 939.175 1264.38 935.042 1271.38 L 898.747 1333.02 C 875.527 1371.98 856.495 1403.02 805.579 1405.41 C 774.764 1406.85 744.116 1406.24 713.275 1406.22 L 560.122 1406.22 L 458.193 1406.25 C 436.388 1406.25 411.301 1406.98 389.942 1404.07 C 348.482 1398.41 321.616 1359.81 319.066 1320.25 C 316.607 1282.09 347.836 1221.62 388.571 1217.03 C 421.517 1213.32 459.156 1214.84 492.601 1214.81 L 638.935 1214.76 C 674.182 1214.77 710.334 1215.16 745.54 1213.69 C 753.044 1204.18 772.937 1167.43 779.784 1155.42 L 849.119 1034.21 L 964.342 833.037 L 1000.86 768.983 C 1008.18 756.124 1016.97 741.756 1023.03 728.491 C 1013.84 728.16 1003.79 728.549 994.555 728.743 C 943.18 729.82 891.388 727.776 840.067 729.172 C 828.379 755.405 803.955 795.06 789.475 821.778 C 771.178 850.685 756.188 891.496 734.428 917.156 C 681.24 979.875 573.122 945.705 567.369 862.848 C 564.771 825.422 577.021 809.926 593.952 779.253 L 632.072 710.257 L 673.454 634.862 C 704.248 578.475 716.31 539.547 788.531 536.436 z"/>
<path transform="translate(0,0)" fill="rgb(37,103,254)" d="M 1320.13 274.677 C 1408.41 269.151 1484.53 336.042 1490.4 424.291 C 1496.27 512.541 1429.67 588.923 1341.45 595.136 C 1252.73 601.384 1175.84 534.342 1169.94 445.605 C 1164.03 356.868 1231.38 280.233 1320.13 274.677 z"/>
</svg>